<svg xmlns="http://www.w3.org/2000/svg" viewBox="0 0 512 512"><defs><style>.cls-1{fill:#ef4881;}.cls-2{fill:#9ccc4f;}.cls-3{fill:#91c83e;}.cls-4{fill:#f6f0c9;}.cls-5{fill:#fff;opacity:0.3;}.cls-6{fill:#010101;}</style></defs><g id="BULINE"><circle class="cls-1" cx="256" cy="256" r="256"/></g><g id="Fruits"><circle class="cls-2" cx="256" cy="256" r="230"/><path d="M247,377.74c0-5,9-18,9-18s9,13,9,18a9,9,0,0,1-18,0Z"/><path d="M247,134.26c0,5,9,18,9,18s9-13,9-18a9,9,0,0,0-18,0Z"/><path d="M377.74,265c-5,0-18-9-18-9s13-9,18-9a9,9,0,0,1,0,18Z"/><path d="M134.26,265c5,0,18-9,18-9s-13-9-18-9a9,9,0,1,0,0,18Z"/><path d="M163.56,335.72c3.51-3.51,19.08-6.36,19.08-6.36s-2.85,15.57-6.36,19.08a9,9,0,1,1-12.72-12.72Z"/><path d="M335.72,163.56c-3.51,3.51-6.36,19.08-6.36,19.08s15.57-2.85,19.08-6.36a9,9,0,1,0-12.72-12.72Z"/><path d="M335.72,348.44c-3.51-3.51-6.36-19.08-6.36-19.08s15.57,2.85,19.08,6.36a9,9,0,1,1-12.72,12.72Z"/><path d="M163.56,176.28c3.51,3.51,19.08,6.36,19.08,6.36s-2.85-15.57-6.36-19.08a9,9,0,0,0-12.72,12.72Z"/><path d="M295.84,371.39c-2-4.57,1.15-20.09,1.15-20.09s13.42,8.41,15.38,13a9,9,0,0,1-16.53,7.11Z"/><path d="M199.63,147.72c2,4.57,15.38,13,15.38,13s3.11-15.52,1.15-20.09a9,9,0,1,0-16.53,7.11Z"/><path d="M371.39,216.16c-4.57,2-20.09-1.15-20.09-1.15s8.41-13.42,13-15.38a9,9,0,0,1,7.11,16.53Z"/><path d="M147.72,312.37c4.57-2,13-15.38,13-15.38s-15.52-3.11-20.09-1.15a9,9,0,1,0,7.11,16.53Z"/><path d="M202.58,365.76c1.84-4.61,15-13.39,15-13.39s3.54,15.44,1.7,20.05a9,9,0,0,1-16.72-6.66Z"/><path d="M292.7,139.58c-1.84,4.61,1.7,20,1.7,20s13.18-8.78,15-13.39a9,9,0,0,0-16.72-6.66Z"/><path d="M365.76,309.42c-4.61-1.84-13.39-15-13.39-15s15.44-3.54,20.05-1.7a9,9,0,0,1-6.66,16.72Z"/><path d="M139.58,219.3c4.61,1.84,20-1.7,20-1.7s-8.78-13.18-13.39-15a9,9,0,1,0-6.66,16.72Z"/><circle class="cls-3" cx="256" cy="256" r="96.05"/><circle class="cls-4" cx="256" cy="256" r="80"/><path d="M375.23,422.86a5,5,0,0,0-7-1.33,199.75,199.75,0,0,1-33.35,18.29,5,5,0,0,0,3.94,9.2,211.41,211.41,0,0,0,21.66-10.84l.27-.16.14-.08.14-.08.55-.32,2.45-1.45.07,0,.06,0h0l.06,0h0l.06,0h0l.06,0h0l.07,0,.06,0h0l.06,0v0l.05,0h0l.05,0h0l.05,0h0l0,0h0l0,0h0l0,0h0l0,0h0l0,0h0l.05,0h0l.05,0h0a.1.1,0,0,1,.05,0h0a.09.09,0,0,0,.05,0h0l.05,0h0l.05,0h0l.05,0h0l.05,0h0l.05,0h0l.05,0,0,0,0,0,0,0,0,0,0,0,0,0h0l0,0h0l.05,0h0l0,0h0l0,0h0s0,0,0,0l0,0,.05,0s0,0,0,0l0,0,0,0,0,0h0l.05,0h0l0,0h0l0,0,0,0,0,0,0,0,0,0,0,0,0,0,0,0,0,0,0,0,0,0,0,0,0,0,0,0h0l0,0h0l.1-.07.05,0,0,0,.08-.05.06,0,.11-.07,0,0,0,0,.12-.07h0l.06,0,0,0h0l.06,0,.05,0h0a.1.1,0,0,0,.05,0h0l.06,0h0l.05,0h0l0,0h0l0,0h0l.05,0h0l.05,0h0l.05,0,0,0,.05,0h0l.05,0h0l.05,0h0l.05,0h0l0,0h0l.06,0h0l.06,0h0l.06,0h0l.06,0h0a.1.1,0,0,1,.05,0h0l.06,0h0l.05,0h0l.05,0h0l.05,0h0l.05,0h0l.05,0h0l.05,0h0l.06,0h0l.05,0h0l.06,0h0l.06,0,.06,0,.13-.08h0q1.83-1.18,3.63-2.41A5,5,0,0,0,375.23,422.86Zm15.69-12.42a5,5,0,0,0-7.05-.65l-.37.3a5,5,0,0,0,3.2,8.86,4.93,4.93,0,0,0,3.18-1.16l.28-.22,0,0,.07-.06,0,0A5,5,0,0,0,390.92,410.44ZM429,366.16a4.92,4.92,0,0,0-2.78-.86,5,5,0,0,0-4.16,2.21,201.16,201.16,0,0,1-24.13,29.41A5,5,0,0,0,405,404q3.18-3.23,6.23-6.56l.06-.06,0-.05h0l.05-.05h0l0-.05h0l0-.05h0l0-.05h0l.05-.05h0l0,0s0,0,0,0l0,0h0l0-.05h0l0-.05h0l0-.05h0l0-.05h0l.05,0v0l0,0v0l0,0h0l0-.05h0l0,0,0,0,0,0,0,0,0,0,0,0,.06-.06,0,0,0,0,0,0,0,0h0s0,0,.05-.05h0l.05,0s0,0,0,0q6.53-7.31,12.36-15.19c.07-.08.13-.17.19-.25h0l0-.05h0l0-.05h0l0-.05v0l0,0,0,0,0,0,0,0,0-.05v0l0,0v0l0,0v0l0-.05v0l0,0,0,0,0,0v0l0,0,0,0,0,0s0,0,0,0l0,0v0l0,0,0,0s0,0,0,0l0,0,0,0,0,0s0,0,0,0l0,0,0,0,0,0a0,0,0,0,0,0,0l0,0,0,0,0,0,0,0,0,0,0,0,0,0,0,0,0,0,0,0,0,0,0,0,0,0,0,0,0,0v0l0,0,0,0,0,0,0,0,0,0,0,0,0,0,0,0,0,0v0l0,0,0,0,0,0s0,0,0,0,0,0,0,0l0,0,0,0s0,0,0,0l0,0s0,0,0,0l0,0,0,0,0,0v0a.13.13,0,0,0,0-.05l0,0,0,0v0l0-.05v0l0,0v0l0,0v0l0-.05,0,0,0,0v0l0,0h0l0-.05v0l0-.05h0l0-.05v0l0-.05h0l0-.06a.21.21,0,0,0,0-.06h0l0-.05h0l0-.06h0l0-.05h0l0-.06h0a.13.13,0,0,1,0-.06h0l.08-.12h0l0-.06s0,0,0-.06h0l0-.06,0-.06h0l.27-.39c.68-1,1.34-1.94,2-2.93A5,5,0,0,0,429,366.16Z"/><path class="cls-5" d="M70,222.85a8.35,8.35,0,0,1-1.71-.18,8.55,8.55,0,0,1-6.69-10.1c5.63-27.72,18.23-54.76,36.45-78.2A200.31,200.31,0,0,1,164.5,79.15a8.57,8.57,0,0,1,7.79,15.27C124.65,118.74,88.66,165.32,78.37,216A8.58,8.58,0,0,1,70,222.85Z"/></g><g id="Black_outlines_-_to_remove" data-name="Black outlines - to remove"><path class="cls-6" d="M256,36a219.2,219.2,0,1,1-85.63,17.28A218.8,218.8,0,0,1,256,36m0-10C129,26,26,129,26,256S129,486,256,486,486,383,486,256,383,26,256,26Z"/></g></svg>